<svg xmlns="http://www.w3.org/2000/svg" width="1240" height="300" viewBox="0 0 1240 300">
  <defs>
    <marker id="arrow" markerWidth="10" markerHeight="8" refX="9" refY="4" orient="auto">
      <path d="M0,0 L10,4 L0,8 Z" fill="#222"/>
    </marker>
  </defs>
  <style>
    .bond { stroke:#222; stroke-width:2.2; stroke-linecap:round; fill:none; }
    .thin { stroke:#222; stroke-width:1.5; stroke-linecap:round; fill:none; }
    .arrow { stroke:#222; stroke-width:2; marker-end:url(#arrow); fill:none; }
    .txt { font-family: Arial, "Microsoft YaHei", sans-serif; font-size:18px; fill:#111; dominant-baseline:middle; text-anchor:middle; }
    .small { font-family: Arial, "Microsoft YaHei", sans-serif; font-size:14px; fill:#333; dominant-baseline:middle; text-anchor:middle; }
    .cond { font-family: Arial, "Microsoft YaHei", sans-serif; font-size:15px; fill:#333; text-anchor:middle; }
    .title { font-family: Arial, "Microsoft YaHei", sans-serif; font-size:16px; font-weight:700; fill:#111; }
  </style>
  <rect width="100%" height="100%" fill="#fff"/>
  
  <text class="title" x="24" y="32">阿司匹林：水杨酸酚羟基乙酰化</text>

  <polygon class="bond" points="183.97114317029974,127.5 183.97114317029974,172.5 145,195 106.02885682970026,172.5 106.02885682970026,127.50000000000001 145,105"/><circle class="thin" cx="145" cy="150" r="23.400000000000002"/><line class="bond" x1="183.97114317029974" y1="127.5" x2="248" y2="92"/><text class="txt" x="294" y="84">COOH</text><line class="bond" x1="145" y1="105" x2="235" y2="205"/><text class="txt" x="262" y="218">OH</text>
  <text class="txt" x="345" y="150">+</text>
  <text class="txt" x="418" y="150">CH3</text>
  <line class="bond" x1="448" y1="150" x2="490" y2="150"/>
  <text class="txt" x="506" y="150">C</text>
  <line class="bond" x1="502" y1="132" x2="502" y2="92"/>
<line class="bond" x1="510" y1="132" x2="510" y2="92"/>
<text class="txt" x="506" y="76">O</text>
  <line class="bond" x1="524" y1="150" x2="558" y2="150"/>
  <text class="txt" x="574" y="150">O</text>
  <line class="bond" x1="592" y1="150" x2="628" y2="150"/>
  <text class="txt" x="644" y="150">C</text>
  <line class="bond" x1="640" y1="132" x2="640" y2="92"/>
<line class="bond" x1="648" y1="132" x2="648" y2="92"/>
<text class="txt" x="644" y="76">O</text>
  <line class="bond" x1="662" y1="150" x2="704" y2="150"/>
  <text class="txt" x="734" y="150">CH3</text>

  <line class="arrow" x1="785" y1="150" x2="925" y2="150"/>
  <text class="cond" x="855" y="122">浓 H2SO4, 85 ℃</text>

  <polygon class="bond" points="1068.9711431702997,127.5 1068.9711431702997,172.5 1030,195 991.0288568297003,172.5 991.0288568297002,127.50000000000001 1030,105"/><circle class="thin" cx="1030" cy="150" r="23.400000000000002"/><line class="bond" x1="1068.9711431702997" y1="127.5" x2="1133" y2="92"/><text class="txt" x="1178" y="84">COOH</text><line class="bond" x1="1030" y1="105" x2="1120" y2="205"/><text class="txt" x="1150" y="218">OCOCH3</text>
  <text class="small" x="1030" y="268">+ CH3COOH</text>

</svg>
