<svg xmlns="http://www.w3.org/2000/svg" width="1120" height="260" viewBox="0 0 1120 260">
  <defs>
    <marker id="arrow" markerWidth="10" markerHeight="8" refX="9" refY="4" orient="auto">
      <path d="M0,0 L10,4 L0,8 Z" fill="#222"/>
    </marker>
  </defs>
  <style>
    .bond { stroke:#222; stroke-width:2.2; stroke-linecap:round; fill:none; }
    .thin { stroke:#222; stroke-width:1.5; stroke-linecap:round; fill:none; }
    .arrow { stroke:#222; stroke-width:2; marker-end:url(#arrow); fill:none; }
    .txt { font-family: Arial, "Microsoft YaHei", sans-serif; font-size:18px; fill:#111; dominant-baseline:middle; text-anchor:middle; }
    .small { font-family: Arial, "Microsoft YaHei", sans-serif; font-size:14px; fill:#333; dominant-baseline:middle; text-anchor:middle; }
    .cond { font-family: Arial, "Microsoft YaHei", sans-serif; font-size:15px; fill:#333; text-anchor:middle; }
    .title { font-family: Arial, "Microsoft YaHei", sans-serif; font-size:16px; font-weight:700; fill:#111; }
  </style>
  <rect width="100%" height="100%" fill="#fff"/>
  
  <text class="title" x="24" y="32">茚三酮显色：α-氨基酸生成蓝紫色产物</text>

  <text class="txt" x="98" y="135">H2N</text>
  <line class="bond" x1="130" y1="135" x2="178" y2="135"/>
  <text class="txt" x="198" y="135">CH</text>
  <line class="bond" x1="198" y1="115" x2="198" y2="78"/>
  <text class="txt" x="198" y="58">R</text>
  <line class="bond" x1="220" y1="135" x2="270" y2="135"/>
  <text class="txt" x="294" y="135">COOH</text>

  <text class="txt" x="368" y="135">+</text>
  <polygon class="bond" points="487.9089653438087,116 487.9089653438087,154 455,173 422.0910346561913,154 422.0910346561913,116.00000000000001 455,97"/><circle class="thin" cx="455" cy="135" r="19.76"/><text class="small" x="455" y="203">茚三酮</text>

  <line class="arrow" x1="540" y1="135" x2="668" y2="135"/>
  <text class="cond" x="604" y="105">加热, pH 5-7</text>

  <text class="txt" x="790" y="115">Ruhemann's purple</text>
  <text class="txt" x="790" y="145">蓝紫色化合物</text>
  <text class="txt" x="950" y="135">+ CO2 + NH3 + R-CHO</text>

</svg>
