<svg xmlns="http://www.w3.org/2000/svg" width="1240" height="260" viewBox="0 0 1240 260">
  <defs>
    <marker id="arrow" markerWidth="10" markerHeight="8" refX="9" refY="4" orient="auto">
      <path d="M0,0 L10,4 L0,8 Z" fill="#222"/>
    </marker>
  </defs>
  <style>
    .bond { stroke:#222; stroke-width:2.2; stroke-linecap:round; fill:none; }
    .thin { stroke:#222; stroke-width:1.5; stroke-linecap:round; fill:none; }
    .arrow { stroke:#222; stroke-width:2; marker-end:url(#arrow); fill:none; }
    .txt { font-family: Arial, "Microsoft YaHei", sans-serif; font-size:18px; fill:#111; dominant-baseline:middle; text-anchor:middle; }
    .small { font-family: Arial, "Microsoft YaHei", sans-serif; font-size:14px; fill:#333; dominant-baseline:middle; text-anchor:middle; }
    .cond { font-family: Arial, "Microsoft YaHei", sans-serif; font-size:15px; fill:#333; text-anchor:middle; }
    .title { font-family: Arial, "Microsoft YaHei", sans-serif; font-size:16px; font-weight:700; fill:#111; }
  </style>
  <rect width="100%" height="100%" fill="#fff"/>
  
  <text class="title" x="24" y="32">BS-12：叔胺与氯乙酸钠的 SN2 季铵化</text>

  <text class="txt" x="70" y="128">CH3</text>
  <line class="bond" x1="98" y1="128" x2="130" y2="106"/><line class="bond" x1="130" y1="106" x2="162" y2="128"/><line class="bond" x1="162" y1="128" x2="194" y2="106"/>
  <line class="bond" x1="194" y1="106" x2="226" y2="128"/><line class="bond" x1="226" y1="128" x2="258" y2="106"/><line class="bond" x1="258" y1="106" x2="290" y2="128"/>
  <line class="bond" x1="290" y1="128" x2="322" y2="106"/><line class="bond" x1="322" y1="106" x2="354" y2="128"/>
  <text class="txt" x="398" y="128">N(CH3)2</text>

  <text class="txt" x="500" y="128">+</text>
  <text class="txt" x="595" y="128">Cl-CH2-C</text>
  <line class="bond" x1="676" y1="110" x2="676" y2="70"/>
<line class="bond" x1="684" y1="110" x2="684" y2="70"/>
<text class="txt" x="680" y="54">O</text>
  <line class="bond" x1="696" y1="128" x2="738" y2="128"/>
  <text class="txt" x="770" y="128">O- Na+</text>

  <line class="arrow" x1="835" y1="128" x2="965" y2="128"/>
  <text class="cond" x="900" y="100">70 ℃, 70% 乙醇</text>

  <text class="txt" x="1080" y="128">C12H25-N+(CH3)2-CH2-COO-</text>
  <text class="small" x="1080" y="178">+ NaCl</text>

</svg>
